<?xml version="1.0" encoding="UTF-8"?>
<!DOCTYPE svg PUBLIC "-//W3C//DTD SVG 1.1//EN" "http://www.w3.org/Graphics/SVG/1.1/DTD/svg11.dtd">
<!-- Creator: CorelDRAW X7 -->
<svg xmlns="http://www.w3.org/2000/svg" xml:space="preserve" width="51mm" height="11mm" version="1.1" style="shape-rendering:geometricPrecision; text-rendering:geometricPrecision; image-rendering:optimizeQuality; fill-rule:evenodd; clip-rule:evenodd"
viewBox="0 0 5100 1100"
 xmlns:xlink="http://www.w3.org/1999/xlink">
 <defs>
  <style type="text/css">
   <![CDATA[
    .fil0 {fill:#5B5B5B;fill-rule:nonzero}
    .fil1 {fill:#E31E24;fill-rule:nonzero}
    .fil2 {fill:#009846;fill-rule:nonzero}
   ]]>
  </style>
 </defs>
 <g id="Слой_x0020_1">
  <metadata id="CorelCorpID_0Corel-Layer"/>
  <g id="_960747920">
   <path class="fil0" d="M1194 501l87 0c18,0 32,4 42,12 11,8 16,21 16,40 0,10 -1,17 -5,24 -3,6 -7,11 -13,14 -5,4 -11,6 -19,8 -7,1 -14,2 -22,2l-86 0 0 -100zm-80 162l177 0c16,0 32,-2 47,-6 16,-4 30,-10 42,-19 12,-8 21,-19 29,-33 7,-13 10,-29 10,-47 0,-23 -5,-43 -16,-59 -11,-16 -28,-27 -51,-34 16,-8 29,-18 37,-30 9,-13 13,-28 13,-46 0,-17 -3,-31 -8,-43 -6,-11 -14,-21 -24,-28 -10,-7 -23,-12 -37,-15 -14,-3 -30,-4 -47,-4l-172 0 0 364zm80 -302l75 0c7,0 14,1 21,2 7,1 12,3 17,6 6,3 10,7 13,13 3,5 4,12 4,21 0,15 -4,26 -13,33 -10,7 -21,10 -36,10l-81 0 0 -85zm522 188c1,-20 0,-40 -5,-59 -5,-19 -13,-35 -23,-50 -11,-14 -25,-26 -41,-35 -17,-9 -37,-13 -59,-13 -20,0 -38,4 -55,11 -16,7 -31,17 -43,29 -12,13 -21,27 -27,44 -7,17 -10,36 -10,56 0,20 3,39 10,56 6,17 15,31 26,44 12,12 26,21 43,28 16,7 35,11 56,11 30,0 55,-7 77,-21 21,-14 36,-37 47,-68l-64 0c-3,8 -9,16 -20,23 -10,7 -23,11 -38,11 -20,0 -36,-5 -47,-16 -10,-11 -16,-28 -17,-51l190 0zm-190 -46c0,-5 1,-11 3,-17 2,-7 5,-13 10,-19 4,-6 10,-10 18,-14 8,-4 17,-6 29,-6 18,0 31,5 39,14 9,10 15,24 19,42l-118 0zm432 160l72 0 0 -119c0,-11 1,-22 4,-33 2,-10 6,-19 12,-27 5,-7 13,-13 22,-18 9,-4 20,-6 34,-6 4,0 9,0 14,0 4,1 8,1 12,2l0 -67c-5,-2 -11,-3 -16,-3 -9,0 -18,2 -26,4 -9,3 -17,7 -25,12 -7,5 -14,11 -20,18 -5,7 -10,14 -13,22l-1 0 0 -49 -69 0 0 264zm439 -264l-75 0 -58 181 -1 0 -60 -181 -77 0 93 248c2,5 3,11 3,16 0,6 -1,11 -3,16 -2,4 -5,8 -10,12 -4,3 -9,5 -15,6 -7,0 -15,0 -22,-1 -7,-1 -14,-1 -21,-2l0 60c8,0 15,1 23,2 7,0 14,0 22,0 25,0 44,-4 58,-14 14,-9 25,-24 33,-45l110 -298zm-638 264l73 0 0 -119c0,-11 1,-22 3,-33 3,-10 7,-19 12,-27 6,-7 13,-13 22,-18 10,-4 21,-6 34,-6 4,0 9,0 14,0 5,1 9,1 12,2l0 -67c-5,-2 -10,-3 -16,-3 -9,0 -17,2 -26,4 -9,3 -17,7 -24,12 -8,5 -14,11 -20,18 -6,7 -11,14 -14,22l-1 0 0 -49 -69 0 0 264zm1122 -255c-3,-19 -9,-36 -18,-51 -9,-15 -20,-27 -33,-37 -13,-10 -28,-17 -45,-22 -17,-5 -36,-8 -55,-8 -28,0 -53,5 -74,15 -22,10 -40,24 -54,41 -15,18 -25,38 -33,61 -7,24 -11,48 -11,75 0,27 3,51 10,75 7,23 18,43 32,60 14,17 31,30 52,40 21,10 46,15 74,15 47,0 83,-13 110,-39 27,-26 43,-61 48,-107l-48 0c-1,15 -4,29 -10,42 -5,13 -12,24 -21,33 -9,10 -19,17 -32,22 -12,6 -27,8 -43,8 -21,0 -40,-4 -56,-12 -15,-8 -28,-19 -38,-33 -10,-14 -18,-30 -23,-49 -4,-18 -7,-38 -7,-59 0,-19 3,-37 7,-55 5,-17 13,-33 23,-47 10,-14 22,-25 38,-33 15,-8 34,-12 56,-12 13,0 24,1 36,5 11,3 21,8 30,14 9,7 17,15 23,25 6,9 10,21 13,33l49 0zm42 124c0,19 3,37 8,54 6,16 14,31 25,43 11,13 24,23 40,30 16,7 34,11 55,11 21,0 39,-4 55,-11 16,-7 30,-17 41,-30 11,-12 19,-27 24,-43 6,-17 8,-35 8,-54 0,-20 -2,-38 -8,-55 -5,-17 -13,-31 -24,-44 -11,-12 -25,-22 -41,-29 -16,-7 -34,-11 -55,-11 -21,0 -39,4 -55,11 -16,7 -29,17 -40,29 -11,13 -19,27 -25,44 -5,17 -8,35 -8,55zm46 0c0,-16 2,-31 6,-43 5,-12 10,-23 18,-31 7,-9 16,-15 26,-20 10,-4 21,-7 32,-7 11,0 22,3 32,7 10,5 19,11 26,20 8,8 14,19 18,31 4,12 6,27 6,43 0,16 -2,30 -6,42 -4,13 -10,23 -18,31 -7,9 -16,15 -26,20 -10,4 -21,6 -32,6 -11,0 -22,-2 -32,-6 -10,-5 -19,-11 -26,-20 -8,-8 -13,-18 -18,-31 -4,-12 -6,-26 -6,-42zm261 131l44 0 0 -164c0,-5 1,-12 4,-19 2,-8 6,-15 12,-22 6,-8 13,-14 22,-19 9,-5 19,-8 32,-8 10,0 18,2 24,5 7,3 12,7 16,12 3,5 6,12 8,19 1,7 2,15 2,23l0 173 43 0 0 -164c0,-21 7,-37 19,-49 12,-12 29,-19 50,-19 11,0 19,2 26,5 7,3 12,7 16,13 3,5 6,11 7,18 2,7 2,15 2,23l0 173 44 0 0 -193c0,-14 -2,-25 -7,-35 -4,-10 -10,-18 -17,-24 -8,-6 -17,-11 -28,-13 -11,-3 -23,-5 -36,-5 -17,0 -33,4 -48,12 -14,8 -26,19 -35,33 -5,-16 -15,-28 -28,-35 -13,-6 -28,-10 -44,-10 -37,0 -66,15 -86,45l-1 0 0 -39 -41 0 0 264zm436 0l44 0 0 -164c0,-5 1,-12 3,-19 3,-8 7,-15 13,-22 5,-8 13,-14 21,-19 9,-5 20,-8 33,-8 10,0 18,2 24,5 7,3 12,7 15,12 4,5 7,12 8,19 2,7 3,15 3,23l0 173 43 0 0 -164c0,-21 6,-37 19,-49 12,-12 29,-19 50,-19 11,0 19,2 26,5 6,3 12,7 15,13 4,5 7,11 8,18 1,7 2,15 2,23l0 173 43 0 0 -193c0,-14 -2,-25 -6,-35 -4,-10 -10,-18 -18,-24 -7,-6 -17,-11 -27,-13 -11,-3 -23,-5 -36,-5 -17,0 -33,4 -48,12 -15,8 -26,19 -35,33 -6,-16 -15,-28 -28,-35 -14,-6 -28,-10 -45,-10 -37,0 -65,15 -85,45l-1 0 0 -39 -41 0 0 264zm618 -83c-4,17 -11,30 -23,38 -12,9 -27,13 -45,13 -15,0 -27,-2 -38,-7 -10,-5 -19,-11 -26,-19 -6,-8 -11,-17 -14,-28 -3,-10 -5,-21 -4,-33l197 0c1,-16 -1,-32 -4,-50 -4,-18 -10,-34 -20,-49 -9,-15 -21,-28 -37,-37 -15,-10 -35,-15 -58,-15 -18,0 -35,4 -50,10 -15,7 -28,17 -39,29 -12,12 -20,27 -26,44 -6,17 -9,35 -9,55 0,20 3,38 8,55 6,17 14,32 24,44 11,12 24,22 39,29 16,7 34,11 55,11 30,0 55,-8 75,-23 20,-16 32,-38 38,-67l-43 0zm-150 -74c0,-10 2,-20 6,-29 4,-9 9,-17 15,-24 7,-6 15,-12 24,-16 9,-4 19,-6 30,-6 11,0 21,2 30,6 9,4 17,10 23,16 7,7 12,15 16,24 4,9 7,19 7,29l-151 0zm241 157l43 0 0 -117c0,-17 2,-32 5,-45 4,-13 9,-25 16,-34 8,-9 18,-16 30,-21 12,-4 27,-7 45,-7l0 -46c-24,-1 -43,4 -59,14 -15,11 -28,27 -39,48l-1 0 0 -56 -40 0 0 264zm395 -179c-1,-16 -5,-29 -12,-41 -6,-11 -14,-20 -24,-28 -11,-7 -22,-13 -35,-16 -13,-4 -27,-6 -42,-6 -22,0 -40,4 -55,11 -16,7 -29,18 -39,30 -11,13 -18,28 -23,45 -6,17 -8,36 -8,56 0,19 3,38 8,54 5,17 13,31 23,43 11,12 24,21 39,28 16,6 33,10 54,10 33,0 59,-10 79,-28 20,-18 32,-43 37,-75l-44 0c-3,20 -11,36 -23,47 -12,11 -29,17 -50,17 -14,0 -26,-3 -35,-8 -10,-5 -18,-13 -24,-22 -6,-9 -11,-19 -14,-31 -3,-11 -4,-23 -4,-35 0,-14 1,-26 4,-39 3,-12 7,-23 13,-33 7,-9 15,-17 26,-23 10,-6 23,-9 39,-9 18,0 33,5 44,14 11,9 18,22 21,39l45 0zm233 96c-4,17 -12,30 -24,38 -12,9 -27,13 -45,13 -14,0 -26,-2 -37,-7 -10,-5 -19,-11 -26,-19 -7,-8 -12,-17 -15,-28 -3,-10 -4,-21 -4,-33l198 0c1,-16 -1,-32 -5,-50 -3,-18 -10,-34 -19,-49 -9,-15 -22,-28 -37,-37 -16,-10 -35,-15 -59,-15 -18,0 -34,4 -49,10 -16,7 -29,17 -40,29 -11,12 -19,27 -26,44 -6,17 -9,35 -9,55 1,20 4,38 9,55 5,17 13,32 24,44 10,12 23,22 39,29 15,7 34,11 55,11 30,0 55,-8 74,-23 20,-16 33,-38 39,-67l-43 0zm-151 -74c1,-10 3,-20 7,-29 4,-9 9,-17 15,-24 7,-6 14,-12 23,-16 9,-4 20,-6 31,-6 10,0 20,2 29,6 10,4 17,10 24,16 7,7 12,15 16,24 4,9 6,19 7,29l-152 0z"/>
   <path class="fil1" d="M496 1054c16,-28 25,-53 24,-82 17,0 31,-2 48,-8 19,-6 31,-14 43,-27 11,-12 17,-23 19,-38 1,-7 1,-13 0,-18 29,-8 52,-17 77,-33 29,-22 43,-42 51,-73 4,-15 7,-31 7,-47 18,-17 32,-35 45,-57 20,-41 26,-75 24,-118l2 -2c33,-32 50,-59 61,-99 5,-20 4,-35 -2,-55 -7,-19 -16,-32 -31,-47 -29,-27 -58,-42 -100,-58 -52,-18 -98,-27 -155,-34 -37,-4 -72,-6 -109,-7 -123,0 -242,11 -349,60 -23,10 -40,21 -58,36 -17,14 -28,26 -36,44 -7,17 -9,31 -5,49 34,88 47,53 66,3 3,-9 7,-15 15,-22 8,-7 16,-11 26,-17 14,-6 27,-10 42,-15 53,-13 107,-19 162,-20 -40,7 -73,16 -109,30 -35,15 -61,29 -88,51 -13,12 -21,22 -30,36 -8,16 -12,29 -12,46 0,18 5,32 15,48 11,16 22,27 40,38 15,9 30,16 45,22 -4,5 -7,11 -11,17 -6,14 -8,25 -5,40 3,14 8,24 19,36 19,19 38,29 66,39 17,6 33,11 50,14l-5 1c-6,1 -11,3 -17,5 -8,4 -13,8 -19,14 -3,4 -5,7 -7,12 -1,4 -1,8 -1,13 2,8 5,13 12,20 8,7 15,11 27,16 9,4 18,6 29,9 24,6 48,10 73,13 62,7 115,7 175,-4 1,4 1,8 1,13 -2,12 -5,22 -14,33 -10,11 -20,17 -35,24 -15,5 -28,7 -43,8 -1,-3 -1,-5 -1,-7 -4,-13 -9,-22 -18,-33 -8,-9 -16,-15 -27,-21 -10,-5 -19,-8 -30,-10 -7,0 -11,0 -18,0 -4,1 -7,2 -10,3 -5,2 -8,4 -11,8 -4,3 -5,7 -6,11 0,4 0,7 1,10 3,6 6,9 11,13 10,8 21,13 33,19 22,9 41,14 66,16 3,0 6,0 8,0 3,28 -6,54 -21,82zm110 -217c-6,-7 -14,-13 -23,-19 -12,-7 -23,-13 -36,-17 48,-3 91,-8 134,-23 -4,12 -11,22 -23,33 -16,12 -32,19 -52,26zm-257 -173c29,3 58,3 89,3 64,-2 121,-6 176,-17 3,1 6,2 9,3 8,3 15,6 21,10 -7,6 -15,12 -26,18 -20,11 -65,15 -89,17 -46,4 -88,4 -134,-1 -17,-2 -33,-5 -49,-9 -2,-1 -13,-5 -17,-7 5,-6 15,-13 19,-16l1 -1zm287 -171c-34,14 -66,21 -104,26 -33,5 -64,7 -98,8 -34,1 -67,0 -101,-4l-3 -1c3,-2 7,-4 11,-5 23,-10 45,-16 71,-22 80,-15 149,-14 230,-5 2,2 -3,2 -6,3zm-54 350c-46,10 -91,11 -140,9 -23,-2 -44,-4 -66,-8 -8,-2 -16,-3 -23,-6 -5,-2 -10,-4 -14,-7 -2,-1 -3,-2 -3,-4 0,-1 0,-2 0,-2 0,-1 1,-2 1,-3 2,-1 3,-2 5,-3 3,-2 6,-3 9,-3 22,-7 51,-8 74,-9 30,-1 54,0 83,5 23,5 40,10 59,20 6,4 11,7 15,11zm-66 120l-6 0c-24,-1 -41,-6 -62,-14 -12,-4 -23,-9 -32,-16 -5,-3 -7,-6 -9,-10 -1,-3 -2,-5 -2,-8 1,-4 2,-6 5,-9 2,-3 5,-5 8,-6 3,-1 6,-2 9,-2 5,-1 9,-1 15,-1 10,2 18,5 28,9 11,5 18,11 26,19 10,10 14,19 18,31 1,3 1,5 2,7z"/>
   <path class="fil2" d="M672 46c-21,3 -78,37 -98,49 -20,14 -32,26 -46,39 -5,-17 -10,-35 -14,-48 -2,-6 -5,-10 -9,-15 -4,-3 -7,-4 -11,-6 -4,-1 -7,-2 -12,-1 -6,1 -10,3 -16,7 -3,2 -5,4 -7,8 -7,9 -12,19 -17,30 -1,3 -2,7 -4,10 -4,-2 -9,-6 -15,-12 -4,-4 -7,-6 -11,-9 -3,-2 -6,-3 -10,-3 -6,-1 -10,0 -15,3 -5,2 -8,5 -11,9 -2,3 -3,6 -4,9 -1,4 -2,8 -2,12 0,2 1,5 1,6 2,9 5,19 8,27 20,52 43,77 47,35l1 0c4,6 8,9 13,11 6,2 10,2 16,1 6,-1 10,-4 15,-8 4,-5 6,-9 8,-16 2,-9 5,-19 8,-29 4,11 9,23 13,30 2,3 3,5 5,7 3,2 5,3 8,4 3,1 5,1 8,0 1,0 6,-3 7,-5 24,-32 25,-47 57,-79 18,-22 61,-58 87,-66z"/>
  </g>
 </g>
</svg>
